<?xml version="1.0" standalone="no"?>
<!DOCTYPE svg PUBLIC "-//W3C//DTD SVG 20010904//EN"
 "http://www.w3.org/TR/2001/REC-SVG-20010904/DTD/svg10.dtd">
<svg version="1.0" xmlns="http://www.w3.org/2000/svg"
 width="512.000000pt" height="512.000000pt" viewBox="0 0 512.000000 512.000000"
 preserveAspectRatio="xMidYMid meet">
<metadata>
Created by potrace 1.14, written by Peter Selinger 2001-2017
</metadata>
<g transform="translate(0.000000,512.000000) scale(0.100000,-0.100000)"
fill="#000000" stroke="none">
<path d="M2730 3459 c-195 -38 -399 -251 -524 -547 -77 -183 -124 -376 -147
-602 l-11 -114 -49 -54 c-64 -73 -176 -171 -207 -183 -65 -25 -67 21 -13 239
76 299 76 434 1 529 -52 66 -149 103 -270 103 -96 0 -161 -19 -232 -69 l-56
-39 -38 60 c-62 95 -125 121 -181 74 -65 -55 -157 -258 -195 -431 -25 -114
-38 -594 -19 -679 17 -75 46 -100 108 -94 63 6 175 61 213 105 35 40 37 61 10
163 -33 125 -35 185 -11 273 39 142 126 292 203 347 55 40 126 42 163 5 33
-33 32 -73 -6 -237 -37 -160 -50 -361 -29 -459 22 -101 70 -154 155 -170 41
-8 57 -5 123 21 133 54 266 135 320 196 l49 55 30 -53 c60 -106 171 -183 300
-208 34 -7 106 -11 161 -8 93 3 105 6 183 45 51 25 111 66 152 103 l67 62 0
-51 c0 -77 18 -146 45 -171 20 -19 32 -22 72 -18 63 6 175 61 213 105 36 40
37 60 10 168 -35 138 -36 188 -5 285 50 155 122 276 197 330 55 40 126 42 163
5 34 -33 32 -73 -6 -243 -38 -162 -50 -355 -29 -454 22 -99 71 -153 155 -169
40 -8 57 -5 121 20 121 47 267 135 318 192 61 68 105 159 112 234 7 66 -7 115
-31 115 -9 0 -73 -58 -143 -128 -123 -123 -187 -170 -218 -158 -23 9 -17 74
26 241 50 199 67 338 51 417 -30 142 -141 218 -321 218 -97 0 -161 -19 -232
-69 l-56 -39 -36 58 c-36 59 -87 100 -122 100 -68 0 -164 -146 -227 -345 -23
-73 -47 -209 -47 -270 0 -61 -22 -97 -118 -188 -137 -129 -319 -160 -411 -68
-45 45 -60 91 -68 206 l-5 90 88 105 c48 58 141 164 207 235 280 304 377 460
377 604 0 173 -122 250 -330 210z m66 -254 c17 -69 -19 -138 -166 -320 -54
-66 -121 -153 -149 -194 -28 -41 -51 -68 -51 -59 0 8 11 58 24 109 68 268 204
489 301 489 29 0 36 -4 41 -25z"/>
</g>
</svg>
